<?xml version="1.0" encoding="utf-8"?>
<!-- Generator: Adobe Illustrator 24.0.3, SVG Export Plug-In . SVG Version: 6.00 Build 0)  -->
<svg version="1.1" id="Layer_1" xmlns="http://www.w3.org/2000/svg" xmlns:xlink="http://www.w3.org/1999/xlink" x="0px" y="0px"
	 viewBox="0 0 267.8 220" style="enable-background:new 0 0 267.8 220;" xml:space="preserve">
<style type="text/css">
	.st0{fill:#3E3E3E;}
	.st1{fill:none;stroke:#658EA5;stroke-width:13;stroke-miterlimit:10;}
	.st2{fill:#C2DCEA;}
	.st3{fill:#B3C4CE;}
	.st4{font-family:'Helvetica-Light';}
	.st5{font-size:185.8683px;}
</style>
<g id="Layer_2_1_">
	<rect class="st0" width="267.8" height="219.9"/>
</g>
<g>
	<line class="st1" x1="95" y1="40.7" x2="95" y2="174.4"/>
	<polygon class="st2" points="128.8,158.6 128.4,158.6 84.7,40.7 65.4,40.7 65.4,174.4 78,174.4 78,55.2 78.4,55.2 122.3,174.4 
		134.1,174.4 156.1,114.6 156.1,83.7 	"/>
	<rect x="178.2" y="115.3" class="st2" width="12.6" height="59"/>
	<polygon class="st3" points="168.7,104.6 168.7,80.2 156.1,114.6 156.1,174.4 168.7,174.4 168.7,115.3 178.2,115.3 178.2,104.6 	
		"/>
	<path class="st3" d="M246.6,63.8c-1.3-4.5-3.6-8.5-6.9-12c-3.3-3.5-7.7-6.2-13.4-8.2c-5.6-2-12.8-3-21.4-3h-48.8v42.9l15.7-42.9
		h19.1v10.8h10.5c12,0,20.8,2.2,26.3,6.5c5.5,4.3,8.3,10.7,8.3,19.1c0,5.7-0.9,10.3-2.7,13.8c-1.8,3.5-4.3,6.3-7.6,8.3
		s-7.3,3.4-12,4.2c-4.7,0.7-10,1.1-16,1.1h-6.8v10.8h6.5c6.2,0,12.3-0.6,18.5-1.7s11.6-3.1,16.4-5.8c4.8-2.8,8.8-6.6,11.8-11.4
		c3-4.8,4.6-10.9,4.6-18.4C248.5,73.1,247.9,68.4,246.6,63.8z"/>
	<rect x="178.2" y="104.6" class="st3" width="12.6" height="10.8"/>
	<polygon class="st3" points="168.7,51.5 190.8,51.5 190.8,40.7 171.8,40.7 156.1,83.7 156.1,114.6 168.7,80.2 	"/>
	<line class="st1" x1="22.8" y1="47" x2="101.4" y2="47"/>
	<line class="st1" x1="22.8" y1="168" x2="101.4" y2="168"/>
	<text transform="matrix(1 0 0 1 141.5608 174.542)" class="st3 st4 st5">P</text>
</g>
</svg>
