<?xml version="1.0" encoding="utf-8"?>
<!-- Generator: Adobe Illustrator 24.0.3, SVG Export Plug-In . SVG Version: 6.00 Build 0)  -->
<svg version="1.1" id="Layer_1" xmlns="http://www.w3.org/2000/svg" xmlns:xlink="http://www.w3.org/1999/xlink" x="0px" y="0px"
	 viewBox="0 0 16 16" style="enable-background:new 0 0 16 16;" xml:space="preserve">
<style type="text/css">
	.st0{fill:#C2DCEA;}
	.st1{fill:none;stroke:#C2DCEA;stroke-width:0.7786;stroke-miterlimit:10;}
	.st2{font-family:'Helvetica-Light';}
	.st3{font-size:11.5094px;}
	.st4{fill:none;stroke:#000000;stroke-width:0.3;}
</style>
<g>
	<rect x="10.7" y="8.5" class="st0" width="0.8" height="3.8"/>
	<polygon class="st0" points="7.7,11.3 7.7,11.3 5,4 3.8,4 3.8,12.3 4.5,12.3 4.5,4.9 4.6,4.9 7.3,12.3 8,12.3 9.4,8.6 9.4,6.7 	"/>
	<polyline class="st1" points="1.1,11.9 5.6,11.9 5.6,4.4 1.1,4.4 	"/>
	<text transform="matrix(1 0 0 1 8.4688 12.3003)" class="st0 st2 st3">P</text>
</g>
<g>
	<line class="st4" x1="8.5" y1="-51.6" x2="8.5" y2="-15.6"/>
	<line class="st4" x1="-45.5" y1="2.4" x2="-9.5" y2="2.4"/>
	<line class="st4" x1="-45.5" y1="16.4" x2="-9.5" y2="16.4"/>
	<line class="st4" x1="8.5" y1="70.4" x2="8.5" y2="34.4"/>
	<line class="st4" x1="15.5" y1="-51.6" x2="15.5" y2="-15.6"/>
	<line class="st4" x1="69.5" y1="2.4" x2="33.5" y2="2.4"/>
	<line class="st4" x1="69.5" y1="16.4" x2="33.5" y2="16.4"/>
	<line class="st4" x1="15.5" y1="70.4" x2="15.5" y2="34.4"/>
</g>
<g>
	<line class="st4" x1="8.5" y1="-51.6" x2="8.5" y2="-15.6"/>
	<line class="st4" x1="-45.5" y1="2.4" x2="-9.5" y2="2.4"/>
	<line class="st4" x1="-45.5" y1="16.4" x2="-9.5" y2="16.4"/>
	<line class="st4" x1="8.5" y1="70.4" x2="8.5" y2="34.4"/>
	<line class="st4" x1="15.5" y1="-51.6" x2="15.5" y2="-15.6"/>
	<line class="st4" x1="69.5" y1="2.4" x2="33.5" y2="2.4"/>
	<line class="st4" x1="69.5" y1="16.4" x2="33.5" y2="16.4"/>
	<line class="st4" x1="15.5" y1="70.4" x2="15.5" y2="34.4"/>
</g>
</svg>
